<svg width="29" height="18" viewBox="0 0 29 18" fill="none" xmlns="http://www.w3.org/2000/svg">
<path fill-rule="evenodd" clip-rule="evenodd" d="M9.73953 14.2008C9.30809 14.406 8.7009 14.5098 7.92351 14.5098H3.57187V9.82726H7.98526C8.75236 9.83434 9.35084 9.93418 9.77674 10.1244C10.5391 10.4672 10.9175 11.0938 10.9175 12.0089C10.9175 13.0883 10.5256 13.8163 9.73953 14.2008ZM3.57187 3.04802H7.47386C8.33121 3.04802 9.03735 3.14001 9.59308 3.3224C10.2343 3.58656 10.5549 4.12588 10.5549 4.94586C10.5549 5.68094 10.3111 6.19511 9.82662 6.48599C9.33897 6.77688 8.70644 6.92232 7.93064 6.92232H3.57187V3.04802ZM11.9308 8.1354C12.8443 8.46245 13.5331 8.97818 14.0025 9.68496C14.4664 10.3902 14.6999 11.2487 14.6999 12.2581C14.6999 13.299 14.434 14.233 13.8996 15.0577C13.5624 15.6041 13.1396 16.0656 12.6314 16.439C12.0606 16.8691 11.3869 17.1608 10.6072 17.3211C9.8282 17.4799 8.98589 17.557 8.07551 17.557H0V0H8.66053C10.8462 0.0314472 12.3931 0.654889 13.3051 1.87032C13.8521 2.6172 14.1268 3.50951 14.1268 4.55041C14.1268 5.62041 13.8521 6.48442 13.298 7.13616C12.9876 7.50016 12.5324 7.83429 11.9308 8.1354ZM18.5308 3.00321V0.818414H26.2105V3.00321H18.5308ZM27.8217 6.7584C28.3695 7.53043 28.721 8.42589 28.8809 9.44321C28.9751 10.0376 29.0123 10.9 28.9965 12.0211H19.3408C19.3986 13.3222 19.8554 14.2358 20.7294 14.7594C21.2574 15.0848 21.8939 15.2484 22.6404 15.2484C23.4265 15.2484 24.0693 15.0495 24.5617 14.6532C24.8332 14.4378 25.0715 14.1406 25.2766 13.7601H28.8144C28.721 14.5282 28.2911 15.312 27.5304 16.1069C26.3437 17.3679 24.6812 18 22.5446 18C20.78 18 19.2237 17.4685 17.8779 16.4025C16.5258 15.3388 15.8537 13.6045 15.8537 11.205C15.8537 8.95499 16.4624 7.22933 17.6784 6.02883C18.8975 4.83069 20.4745 4.22769 22.4172 4.22769C23.5714 4.22769 24.6092 4.43131 25.5338 4.83698C26.4601 5.24186 27.2216 5.88338 27.8217 6.7584ZM19.4263 9.78048H25.3993C25.3359 8.87873 25.0256 8.19711 24.4762 7.72776C23.9205 7.26156 23.2365 7.02885 22.4187 7.02885C21.5321 7.02885 20.8394 7.2765 20.3502 7.771C19.861 8.26551 19.5522 8.93534 19.4263 9.78048Z" fill="#828282"/>
</svg>
