<svg width="23" height="23" viewBox="0 0 23 23" fill="none" xmlns="http://www.w3.org/2000/svg">
<path fill-rule="evenodd" clip-rule="evenodd" d="M11.5 0C14.6232 0 15.0148 0.0132385 16.2414 0.0692045C17.4655 0.125034 18.3015 0.319454 19.0329 0.603758C19.7892 0.897603 20.4305 1.29083 21.0699 1.93014C21.7092 2.56951 22.1024 3.21084 22.3963 3.96706C22.6805 4.69855 22.875 5.53452 22.9308 6.75856C22.9868 7.98516 23 8.37679 23 11.5C23 14.6232 22.9868 15.0148 22.9308 16.2414C22.875 17.4655 22.6805 18.3015 22.3963 19.0329C22.1024 19.7892 21.7092 20.4305 21.0699 21.0699C20.4305 21.7092 19.7892 22.1024 19.0329 22.3963C18.3015 22.6805 17.4655 22.875 16.2414 22.9308C15.0148 22.9868 14.6232 23 11.5 23C8.37679 23 7.98516 22.9868 6.75856 22.9308C5.53452 22.875 4.69855 22.6805 3.96706 22.3963C3.21084 22.1024 2.56951 21.7092 1.93014 21.0699C1.29083 20.4305 0.897603 19.7892 0.603758 19.0329C0.319454 18.3015 0.125034 17.4655 0.0692045 16.2414C0.0132385 15.0148 0 14.6232 0 11.5C0 8.37679 0.0132385 7.98516 0.0692045 6.75856C0.125034 5.53452 0.319454 4.69855 0.603758 3.96706C0.897603 3.21084 1.29083 2.56951 1.93014 1.93014C2.56951 1.29083 3.21084 0.897603 3.96706 0.603758C4.69855 0.319454 5.53452 0.125034 6.75856 0.0692045C7.98516 0.0132385 8.37679 0 11.5 0ZM11.5 2.19048C8.46794 2.19048 8.10877 2.20206 6.91138 2.25669C5.80422 2.30718 5.20295 2.49217 4.80281 2.64768C4.27276 2.85368 3.89448 3.09975 3.49714 3.49714C3.09975 3.89448 2.85368 4.27276 2.64768 4.80281C2.49217 5.20295 2.30718 5.80422 2.25669 6.91138C2.20206 8.10877 2.19048 8.46794 2.19048 11.5C2.19048 14.5321 2.20206 14.8912 2.25669 16.0886C2.30718 17.1958 2.49217 17.797 2.64768 18.1972C2.85368 18.7272 3.09979 19.1055 3.49714 19.5029C3.89448 19.9002 4.27276 20.1463 4.80281 20.3523C5.20295 20.5078 5.80422 20.6928 6.91138 20.7433C8.10864 20.7979 8.46771 20.8095 11.5 20.8095C14.5323 20.8095 14.8914 20.7979 16.0886 20.7433C17.1958 20.6928 17.797 20.5078 18.1972 20.3523C18.7272 20.1463 19.1055 19.9002 19.5029 19.5029C19.9002 19.1055 20.1463 18.7272 20.3523 18.1972C20.5078 17.797 20.6928 17.1958 20.7433 16.0886C20.7979 14.8912 20.8095 14.5321 20.8095 11.5C20.8095 8.46794 20.7979 8.10877 20.7433 6.91138C20.6928 5.80422 20.5078 5.20295 20.3523 4.80281C20.1463 4.27276 19.9002 3.89448 19.5029 3.49714C19.1055 3.09975 18.7272 2.85368 18.1972 2.64768C17.797 2.49217 17.1958 2.30718 16.0886 2.25669C14.8912 2.20206 14.5321 2.19048 11.5 2.19048ZM11.5 5.47619C14.8269 5.47619 17.5238 8.17312 17.5238 11.5C17.5238 14.8269 14.8269 17.5238 11.5 17.5238C8.17312 17.5238 5.47619 14.8269 5.47619 11.5C5.47619 8.17312 8.17312 5.47619 11.5 5.47619ZM11.5 15.3333C13.6171 15.3333 15.3333 13.6171 15.3333 11.5C15.3333 9.3829 13.6171 7.66667 11.5 7.66667C9.3829 7.66667 7.66667 9.3829 7.66667 11.5C7.66667 13.6171 9.3829 15.3333 11.5 15.3333ZM19.7143 6.02384C19.7143 6.93117 18.9787 7.66667 18.0714 7.66667C17.1641 7.66667 16.4286 6.93117 16.4286 6.02384C16.4286 5.1165 17.1641 4.38095 18.0714 4.38095C18.9787 4.38095 19.7143 5.1165 19.7143 6.02384Z" fill="#828282"/>
</svg>
