<svg width="73" height="30" viewBox="0 0 73 30" fill="none" xmlns="http://www.w3.org/2000/svg">
<g style="mix-blend-mode:difference" clip-path="url(#clip0)">
<path d="M8.7189 19.2714H3.96121L2.79302 22.0591H0L6.46749 7.2756H6.59493L13.0412 22.0591H9.78089L8.7189 19.2714ZM7.77373 16.8955L6.39315 13.4319L4.94885 16.8955H7.77373Z" fill="#000"/>
<path d="M21.5371 10.2218C21.0288 10.1847 20.5213 10.3026 20.0822 10.5597C19.9035 10.6886 19.7616 10.8616 19.6704 11.0615C19.5792 11.2614 19.5417 11.4815 19.5618 11.7001C19.5745 11.9451 19.6506 12.1827 19.7827 12.3898C19.9148 12.597 20.0984 12.7668 20.3158 12.8828C20.9377 13.2914 21.6084 13.6213 22.3123 13.8648C22.9234 14.0795 23.5077 14.3629 24.054 14.7096C24.548 15.0476 24.9554 15.4961 25.2434 16.019C25.5808 16.6707 25.7419 17.3986 25.7107 18.1309C25.7158 18.8745 25.5051 19.6037 25.1039 20.2311C24.7027 20.8586 24.128 21.3576 23.4487 21.6684C22.6243 22.0598 21.7173 22.2481 20.8043 22.2175C19.9474 22.2183 19.0952 22.0901 18.2768 21.8374C17.4313 21.5937 16.6339 21.208 15.9192 20.6969L17.2148 18.5005C17.7302 18.8781 18.2993 19.177 18.9034 19.3875C19.4515 19.6056 20.0337 19.7271 20.6238 19.7466C21.1688 19.759 21.7074 19.6278 22.1849 19.3664C22.3984 19.2376 22.5707 19.0511 22.6817 18.8286C22.7926 18.6061 22.8376 18.3568 22.8115 18.1098C22.8115 17.3812 22.1212 16.7476 20.6875 16.2196C19.9853 15.9531 19.3007 15.6428 18.6379 15.2904C18.074 14.9839 17.5875 14.5543 17.2148 14.0338C16.7952 13.4109 16.5868 12.6709 16.6201 11.9219C16.6054 11.3713 16.7086 10.8239 16.9228 10.3159C17.137 9.80802 17.4574 9.35118 17.8626 8.97571C18.7529 8.17943 19.9043 7.73273 21.1017 7.71911C22.0036 7.70044 22.9029 7.82157 23.7673 8.07814C24.5194 8.33444 25.2337 8.68957 25.8912 9.1341L24.8292 11.246C23.8359 10.6348 22.7036 10.2825 21.5371 10.2218Z" fill="#000"/>
<path d="M39.1343 7.80359V10.5597H35.651V22.0591H32.8155V10.5597H29.4702V7.80359H39.1343Z" fill="#000"/>
<path d="M43.7644 10.5597V7.80359H53.5559V10.5597H43.7644ZM43.7644 16.3147V13.5586H52.7913V16.2724L43.7644 16.3147ZM46.5893 19.3981H53.8214V22.1014H43.7644V19.3559L46.5893 19.3981Z" fill="#000"/>
<path d="M73.3089 22.0591H66.6715C66.1759 22.1646 65.6704 22.2177 65.1635 22.2175C63.8799 22.2273 62.6176 21.8916 61.5103 21.246C60.6802 20.7693 59.9527 20.1346 59.3694 19.3781C58.7862 18.6217 58.3585 17.7584 58.111 16.8375C57.8634 15.9167 57.8008 14.9563 57.9267 14.0114C58.0526 13.0665 58.3645 12.1555 58.8447 11.3305C59.4851 10.2224 60.4035 9.29824 61.5103 8.64836C62.6155 7.9948 63.8776 7.64984 65.1635 7.64984C66.4494 7.64984 67.7115 7.9948 68.8167 8.64836C69.9296 9.30108 70.8577 10.2239 71.5142 11.3305C72.0457 12.2151 72.3771 13.2043 72.4853 14.2291C72.5935 15.254 72.4759 16.2899 72.1408 17.265C71.8952 17.9983 71.537 18.6894 71.0788 19.3136H73.362V22.0591H73.3089ZM61.3722 17.2334C61.7629 17.9118 62.3224 18.4791 62.9971 18.8807C63.6803 19.2974 64.4682 19.5134 65.2697 19.5037C66.0468 19.5057 66.8088 19.2898 67.468 18.8807C68.122 18.4739 68.6596 17.9066 69.0291 17.2334C69.3991 16.5294 69.5923 15.7468 69.592 14.9525C69.5914 14.1557 69.3906 13.3717 69.0079 12.6716C68.6399 12.0068 68.1019 11.4504 67.4482 11.0588C66.7945 10.6672 66.0484 10.4542 65.2854 10.4413C64.5224 10.4284 63.7694 10.6162 63.1028 10.9856C62.4362 11.355 61.8795 11.8929 61.489 12.5449C61.4604 12.5847 61.4355 12.6272 61.4147 12.6716C61.0222 13.3678 60.8208 14.1544 60.8306 14.9525C60.8063 15.7469 60.9931 16.5336 61.3722 17.2334V17.2334Z" fill="#000"/>
</g>
<defs>
<clipPath id="clip0">
<rect width="73" height="30" fill="white"/>
</clipPath>
</defs>
</svg>
